<mxfile host="65bd71144e">
    <diagram id="gN5veEqgsvZ1zo1EtN6D" name="Page-1">
        <mxGraphModel dx="1009" dy="718" grid="1" gridSize="10" guides="1" tooltips="1" connect="1" arrows="1" fold="1" page="1" pageScale="1" pageWidth="850" pageHeight="1100" math="0" shadow="0">
            <root>
                <mxCell id="0"/>
                <mxCell id="1" parent="0"/>
                <mxCell id="54" value="" style="rounded=0;whiteSpace=wrap;html=1;" vertex="1" parent="1">
                    <mxGeometry x="1000" y="160" width="210" height="300" as="geometry"/>
                </mxCell>
                <mxCell id="4" value="Project" style="html=1;" vertex="1" parent="1">
                    <mxGeometry x="140" y="380" width="110" height="50" as="geometry"/>
                </mxCell>
                <mxCell id="32" value="«User»&lt;br&gt;&lt;b&gt;Owner&lt;/b&gt;" style="html=1;" vertex="1" parent="1">
                    <mxGeometry x="140" y="190" width="110" height="50" as="geometry"/>
                </mxCell>
                <mxCell id="35" value="" style="edgeStyle=entityRelationEdgeStyle;fontSize=12;html=1;endArrow=ERmany;startArrow=ERmandOne;exitX=1;exitY=0.5;exitDx=0;exitDy=0;entryX=1;entryY=0.5;entryDx=0;entryDy=0;endFill=0;" edge="1" parent="1" source="32" target="4">
                    <mxGeometry width="100" height="100" relative="1" as="geometry">
                        <mxPoint x="410" y="410" as="sourcePoint"/>
                        <mxPoint x="250" y="310" as="targetPoint"/>
                    </mxGeometry>
                </mxCell>
                <mxCell id="36" value="Project" style="html=1;" vertex="1" parent="1">
                    <mxGeometry x="355" y="380" width="110" height="50" as="geometry"/>
                </mxCell>
                <mxCell id="37" value="«User»&lt;br&gt;&lt;b&gt;Participant&lt;/b&gt;" style="html=1;" vertex="1" parent="1">
                    <mxGeometry x="355" y="190" width="110" height="50" as="geometry"/>
                </mxCell>
                <mxCell id="39" value="" style="edgeStyle=entityRelationEdgeStyle;fontSize=12;html=1;endArrow=ERmany;startArrow=ERmany;entryX=1;entryY=0.5;entryDx=0;entryDy=0;exitX=1;exitY=0.5;exitDx=0;exitDy=0;" edge="1" parent="1" source="36" target="37">
                    <mxGeometry width="100" height="100" relative="1" as="geometry">
                        <mxPoint x="285" y="410" as="sourcePoint"/>
                        <mxPoint x="445" y="280" as="targetPoint"/>
                    </mxGeometry>
                </mxCell>
                <mxCell id="41" value="Users in Projects" style="text;align=center;fontStyle=1;verticalAlign=middle;spacingLeft=3;spacingRight=3;strokeColor=none;rotatable=0;points=[[0,0.5],[1,0.5]];portConstraint=eastwest;" vertex="1" parent="1">
                    <mxGeometry x="270" y="120" width="80" height="26" as="geometry"/>
                </mxCell>
                <mxCell id="42" value="User Comments Project" style="text;align=center;fontStyle=1;verticalAlign=middle;spacingLeft=3;spacingRight=3;strokeColor=none;rotatable=0;points=[[0,0.5],[1,0.5]];portConstraint=eastwest;" vertex="1" parent="1">
                    <mxGeometry x="665" y="120" width="80" height="26" as="geometry"/>
                </mxCell>
                <mxCell id="49" style="edgeStyle=orthogonalEdgeStyle;rounded=0;orthogonalLoop=1;jettySize=auto;html=1;exitX=1;exitY=0.5;exitDx=0;exitDy=0;entryX=1;entryY=0.5;entryDx=0;entryDy=0;startArrow=ERmany;startFill=0;endArrow=ERmany;endFill=0;" edge="1" parent="1" source="43" target="45">
                    <mxGeometry relative="1" as="geometry"/>
                </mxCell>
                <mxCell id="43" value="User" style="html=1;" vertex="1" parent="1">
                    <mxGeometry x="650" y="190" width="110" height="50" as="geometry"/>
                </mxCell>
                <mxCell id="45" value="Project" style="html=1;" vertex="1" parent="1">
                    <mxGeometry x="650" y="380" width="110" height="50" as="geometry"/>
                </mxCell>
                <mxCell id="50" value="User Comments a Comment" style="text;align=center;fontStyle=1;verticalAlign=middle;spacingLeft=3;spacingRight=3;strokeColor=none;rotatable=0;points=[[0,0.5],[1,0.5]];portConstraint=eastwest;" vertex="1" parent="1">
                    <mxGeometry x="1055" y="120" width="80" height="26" as="geometry"/>
                </mxCell>
                <mxCell id="51" style="edgeStyle=orthogonalEdgeStyle;rounded=0;orthogonalLoop=1;jettySize=auto;html=1;exitX=1;exitY=0.5;exitDx=0;exitDy=0;entryX=1;entryY=0.5;entryDx=0;entryDy=0;startArrow=ERmany;startFill=0;endArrow=ERmany;endFill=0;" edge="1" parent="1" source="52" target="53">
                    <mxGeometry relative="1" as="geometry">
                        <Array as="points">
                            <mxPoint x="1180" y="215"/>
                            <mxPoint x="1180" y="405"/>
                        </Array>
                    </mxGeometry>
                </mxCell>
                <mxCell id="56" style="edgeStyle=orthogonalEdgeStyle;rounded=0;orthogonalLoop=1;jettySize=auto;html=1;exitX=0;exitY=0.5;exitDx=0;exitDy=0;entryX=0;entryY=0.5;entryDx=0;entryDy=0;startArrow=ERmany;startFill=0;endArrow=ERmany;endFill=0;" edge="1" parent="1" source="52" target="54">
                    <mxGeometry relative="1" as="geometry">
                        <Array as="points">
                            <mxPoint x="960" y="215"/>
                            <mxPoint x="960" y="310"/>
                        </Array>
                    </mxGeometry>
                </mxCell>
                <mxCell id="52" value="User" style="html=1;" vertex="1" parent="1">
                    <mxGeometry x="1040" y="190" width="110" height="50" as="geometry"/>
                </mxCell>
                <mxCell id="53" value="Project" style="html=1;" vertex="1" parent="1">
                    <mxGeometry x="1040" y="380" width="110" height="50" as="geometry"/>
                </mxCell>
                <mxCell id="57" value="Comments" style="text;html=1;strokeColor=none;fillColor=none;align=center;verticalAlign=middle;whiteSpace=wrap;rounded=0;" vertex="1" parent="1">
                    <mxGeometry x="900" y="260" width="40" height="20" as="geometry"/>
                </mxCell>
                <mxCell id="58" value="Comments" style="text;html=1;strokeColor=none;fillColor=none;align=center;verticalAlign=middle;whiteSpace=wrap;rounded=0;" vertex="1" parent="1">
                    <mxGeometry x="1120" y="300" width="40" height="20" as="geometry"/>
                </mxCell>
                <mxCell id="59" value="Comments" style="text;html=1;strokeColor=none;fillColor=none;align=center;verticalAlign=middle;whiteSpace=wrap;rounded=0;" vertex="1" parent="1">
                    <mxGeometry x="720" y="300" width="40" height="20" as="geometry"/>
                </mxCell>
                <mxCell id="60" value="" style="rounded=0;whiteSpace=wrap;html=1;" vertex="1" parent="1">
                    <mxGeometry x="1370" y="160" width="210" height="300" as="geometry"/>
                </mxCell>
                <mxCell id="61" value="User Likes a Comment" style="text;align=center;fontStyle=1;verticalAlign=middle;spacingLeft=3;spacingRight=3;strokeColor=none;rotatable=0;points=[[0,0.5],[1,0.5]];portConstraint=eastwest;" vertex="1" parent="1">
                    <mxGeometry x="1425" y="120" width="80" height="26" as="geometry"/>
                </mxCell>
                <mxCell id="62" style="edgeStyle=orthogonalEdgeStyle;rounded=0;orthogonalLoop=1;jettySize=auto;html=1;exitX=1;exitY=0.5;exitDx=0;exitDy=0;entryX=1;entryY=0.5;entryDx=0;entryDy=0;startArrow=ERmany;startFill=0;endArrow=ERmany;endFill=0;" edge="1" parent="1" source="64" target="65">
                    <mxGeometry relative="1" as="geometry">
                        <Array as="points">
                            <mxPoint x="1550" y="215"/>
                            <mxPoint x="1550" y="405"/>
                        </Array>
                    </mxGeometry>
                </mxCell>
                <mxCell id="63" style="edgeStyle=orthogonalEdgeStyle;rounded=0;orthogonalLoop=1;jettySize=auto;html=1;exitX=0;exitY=0.5;exitDx=0;exitDy=0;entryX=0;entryY=0.5;entryDx=0;entryDy=0;startArrow=ERmany;startFill=0;endArrow=ERmandOne;endFill=0;" edge="1" parent="1" source="64" target="60">
                    <mxGeometry relative="1" as="geometry">
                        <Array as="points">
                            <mxPoint x="1330" y="215"/>
                            <mxPoint x="1330" y="310"/>
                        </Array>
                    </mxGeometry>
                </mxCell>
                <mxCell id="64" value="User" style="html=1;" vertex="1" parent="1">
                    <mxGeometry x="1410" y="190" width="110" height="50" as="geometry"/>
                </mxCell>
                <mxCell id="65" value="Project" style="html=1;" vertex="1" parent="1">
                    <mxGeometry x="1410" y="380" width="110" height="50" as="geometry"/>
                </mxCell>
                <mxCell id="66" value="Likes" style="text;html=1;strokeColor=none;fillColor=none;align=center;verticalAlign=middle;whiteSpace=wrap;rounded=0;" vertex="1" parent="1">
                    <mxGeometry x="1275" y="260" width="40" height="20" as="geometry"/>
                </mxCell>
                <mxCell id="67" value="Comments" style="text;html=1;strokeColor=none;fillColor=none;align=center;verticalAlign=middle;whiteSpace=wrap;rounded=0;" vertex="1" parent="1">
                    <mxGeometry x="1490" y="300" width="40" height="20" as="geometry"/>
                </mxCell>
            </root>
        </mxGraphModel>
    </diagram>
</mxfile>